<svg width="40" height="40" viewBox="0 0 40 40" fill="none" xmlns="http://www.w3.org/2000/svg">
<circle cx="20" cy="20" r="20" fill="url(#paint0_linear_12_161)"/>
<path fill-rule="evenodd" clip-rule="evenodd" d="M27.9005 19.8921L27.35 20.2431C26.357 20.875 25.156 21.0927 24.0044 20.8496C22.8528 20.6065 21.8423 19.9219 21.1895 18.9426L20 17.1576L18.8105 18.9426C18.1577 19.9219 17.1471 20.6065 15.9955 20.8496C14.8439 21.0927 13.6429 20.875 12.65 20.2431L12.0995 19.8921L13.313 24.5001H26.687L27.9005 19.8921ZM10.481 15.3051C9.32896 14.5731 7.87696 15.6336 8.22496 16.9536L10.706 26.3811C10.7901 26.7014 10.9778 26.9848 11.2399 27.1873C11.5021 27.3897 11.8238 27.4997 12.155 27.5001H27.842C28.1732 27.5001 28.4951 27.3905 28.7575 27.1883C29.0199 26.9862 29.208 26.7028 29.2925 26.3826L31.7735 16.9536C32.1215 15.6336 30.6695 14.5731 29.5175 15.3051L25.7375 17.7111C25.4065 17.9217 25.0061 17.9943 24.6223 17.9133C24.2384 17.8322 23.9016 17.604 23.684 17.2776L21.2465 13.6221C21.1095 13.4166 20.9239 13.2482 20.7062 13.1317C20.4885 13.0152 20.2454 12.9542 19.9985 12.9542C19.7515 12.9542 19.5084 13.0152 19.2907 13.1317C19.073 13.2482 18.8874 13.4166 18.7505 13.6221L16.3145 17.2776C16.0971 17.6043 15.7604 17.8328 15.3765 17.9141C14.9926 17.9954 14.5921 17.9231 14.261 17.7126L10.481 15.3051Z" fill="#105389"/>
<path d="M21.5 10.25C21.5 10.6478 21.342 11.0294 21.0607 11.3107C20.7794 11.592 20.3978 11.75 20 11.75C19.6022 11.75 19.2206 11.592 18.9393 11.3107C18.658 11.0294 18.5 10.6478 18.5 10.25C18.5 9.85218 18.658 9.47064 18.9393 9.18934C19.2206 8.90804 19.6022 8.75 20 8.75C20.3978 8.75 20.7794 8.90804 21.0607 9.18934C21.342 9.47064 21.5 9.85218 21.5 10.25ZM33.5 13.25C33.5 13.6478 33.342 14.0294 33.0607 14.3107C32.7794 14.592 32.3978 14.75 32 14.75C31.6022 14.75 31.2206 14.592 30.9393 14.3107C30.658 14.0294 30.5 13.6478 30.5 13.25C30.5 12.8522 30.658 12.4706 30.9393 12.1893C31.2206 11.908 31.6022 11.75 32 11.75C32.3978 11.75 32.7794 11.908 33.0607 12.1893C33.342 12.4706 33.5 12.8522 33.5 13.25ZM9.5 13.25C9.5 13.6478 9.34196 14.0294 9.06066 14.3107C8.77936 14.592 8.39782 14.75 8 14.75C7.60218 14.75 7.22064 14.592 6.93934 14.3107C6.65804 14.0294 6.5 13.6478 6.5 13.25C6.5 12.8522 6.65804 12.4706 6.93934 12.1893C7.22064 11.908 7.60218 11.75 8 11.75C8.39782 11.75 8.77936 11.908 9.06066 12.1893C9.34196 12.4706 9.5 12.8522 9.5 13.25Z" fill="#105389"/>
<path fill-rule="evenodd" clip-rule="evenodd" d="M11.75 29.375C11.75 28.9772 11.908 28.5956 12.1893 28.3143C12.4706 28.033 12.8522 27.875 13.25 27.875H27.1265C27.5243 27.875 27.9059 28.033 28.1872 28.3143C28.4685 28.5956 28.6265 28.9772 28.6265 29.375C28.6265 29.7728 28.4685 30.1544 28.1872 30.4357C27.9059 30.717 27.5243 30.875 27.1265 30.875H13.25C12.8522 30.875 12.4706 30.717 12.1893 30.4357C11.908 30.1544 11.75 29.7728 11.75 29.375Z" fill="#105389"/>
<defs>
<linearGradient id="paint0_linear_12_161" x1="34.5" y1="33.5" x2="8" y2="5.5" gradientUnits="userSpaceOnUse">
<stop stop-color="#DCB426"/>
<stop offset="1" stop-color="#F9EB71"/>
</linearGradient>
</defs>
</svg>
